HIERARCHY
ROOT Hips
{
	OFFSET 47.887600 -19.006115 96.754601
	CHANNELS 6 Xposition Yposition Zposition Xrotation Yrotation Zrotation
	JOINT spine
	{
		OFFSET 0.000000 -0.458069 7.965683
		CHANNELS 3 Xrotation Yrotation Zrotation
		JOINT spine1
		{
			OFFSET 0.000000 -0.000002 10.243103
			CHANNELS 3 Xrotation Yrotation Zrotation
			JOINT spine2
			{
				OFFSET 0.000000 -0.000002 9.814751
				CHANNELS 3 Xrotation Yrotation Zrotation
				JOINT Neck
				{
					OFFSET 0.000000 -1.201384 25.198608
					CHANNELS 3 Xrotation Yrotation Zrotation
					JOINT Head
					{
						OFFSET 0.000000 0.000000 7.613144
						CHANNELS 3 Xrotation Yrotation Zrotation
						End Site
						{
							OFFSET 0.000000 6.077326 18.428101
						}
					}
				}
				JOINT RightShoulder
				{
					OFFSET -4.132702 0.575449 10.599197
					CHANNELS 3 Xrotation Yrotation Zrotation
					JOINT RightArm
					{
						OFFSET 0.000000 -0.000002 13.901794
						CHANNELS 3 Xrotation Yrotation Zrotation
						JOINT RightArmRoll
						{
							OFFSET 0.000000 0.000000 7.017883
							CHANNELS 3 Xrotation Yrotation Zrotation
							JOINT RightForeArm
							{
								OFFSET 0.000000 -0.000004 20.440598
								CHANNELS 3 Xrotation Yrotation Zrotation
								JOINT RightForeArmRoll
								{
									OFFSET 0.000000 -0.000002 7.875153
									CHANNELS 3 Xrotation Yrotation Zrotation
									JOINT RightHand
									{
										OFFSET 0.000000 -0.000002 15.803696
										CHANNELS 3 Xrotation Yrotation Zrotation
										End Site
										{
											OFFSET 0.000000 0.000000 0.100006
										}
									}
								}
							}
						}
					}
				}
				JOINT LeftShoulder
				{
					OFFSET 4.132702 0.575449 10.599197
					CHANNELS 3 Xrotation Yrotation Zrotation
					JOINT LeftArm
					{
						OFFSET 0.000000 -0.000002 13.901794
						CHANNELS 3 Xrotation Yrotation Zrotation
						JOINT LeftArmRoll
						{
							OFFSET 0.000000 0.000000 7.017883
							CHANNELS 3 Xrotation Yrotation Zrotation
							JOINT LeftForeArm
							{
								OFFSET 0.000000 -0.000004 20.440598
								CHANNELS 3 Xrotation Yrotation Zrotation
								JOINT LeftForeArmRoll
								{
									OFFSET 0.000000 -0.000002 7.875153
									CHANNELS 3 Xrotation Yrotation Zrotation
									JOINT LeftHand
									{
										OFFSET 0.000000 -0.000002 15.803696
										CHANNELS 3 Xrotation Yrotation Zrotation
										End Site
										{
											OFFSET 0.000000 0.000000 0.100006
										}
									}
								}
							}
						}
					}
				}
			}
		}
	}
	JOINT RightUpLeg
	{
		OFFSET -7.060482 1.086100 -1.294701
		CHANNELS 3 Xrotation Yrotation Zrotation
		JOINT RightUpLegRoll
		{
			OFFSET 0.000000 -0.000004 18.530800
			CHANNELS 3 Xrotation Yrotation Zrotation
			JOINT RightLeg
			{
				OFFSET 0.000000 0.000004 -22.947601
				CHANNELS 3 Xrotation Yrotation Zrotation
				JOINT RightLegRoll
				{
					OFFSET 0.000000 -0.000004 23.022598
					CHANNELS 3 Xrotation Yrotation Zrotation
					JOINT RightFoot
					{
						OFFSET 0.000000 -0.000002 19.162498
						CHANNELS 3 Xrotation Yrotation Zrotation
						JOINT RightToeBase
						{
							OFFSET 0.000000 -0.000004 16.018799
							CHANNELS 3 Xrotation Yrotation Zrotation
							End Site
							{
								OFFSET 0.006790 0.894205 7.757828
							}
						}
					}
				}
			}
		}
	}
	JOINT LeftUpLeg
	{
		OFFSET 7.060482 1.086100 -1.294701
		CHANNELS 3 Xrotation Yrotation Zrotation
		JOINT LeftUpLegRoll
		{
			OFFSET 0.000000 -0.000004 18.530899
			CHANNELS 3 Xrotation Yrotation Zrotation
			JOINT LeftLeg
			{
				OFFSET 0.000000 -0.000004 22.947495
				CHANNELS 3 Xrotation Yrotation Zrotation
				JOINT LeftLegRoll
				{
					OFFSET 0.000000 -0.000004 23.235504
					CHANNELS 3 Xrotation Yrotation Zrotation
					JOINT LeftFoot
					{
						OFFSET 0.000000 -0.000002 18.949600
						CHANNELS 3 Xrotation Yrotation Zrotation
						JOINT LeftToeBase
						{
							OFFSET 0.000000 -0.000004 16.018799
							CHANNELS 3 Xrotation Yrotation Zrotation
							End Site
							{
								OFFSET -0.030430 0.894207 7.757828
							}
						}
					}
				}
			}
		}
	}
}
MOTION
Frames: 10
Frame Time: 0.041667
48.366905 -18.908319 96.897293 -0.291469 -0.027319 1.757831 -2.542581 -0.036235 0.090805 -1.082291 -0.076357 0.181833 0.562779 -0.074156 0.182729 21.573634 0.906184 0.942398 12.359356 -0.628180 1.131248 -13.449466 -38.628394 -15.057528 31.119230 -50.634211 69.374744 -0.000000 0.000000 -0.000001 5.061349 6.441680 -0.982828 -0.000007 0.000004 -2.999991 -5.000221 -7.998735 0.000150 -12.519780 40.189356 13.894599 33.813668 50.090343 -68.249914 -0.000001 0.000003 -0.000001 4.339297 -5.623880 1.224666 -0.000007 -0.000017 2.999986 -5.000191 7.998742 -0.000138 -2.440273 -176.711979 2.596423 -179.999991 0.000005 -1.094000 173.693992 -1.985923 -0.543420 -0.000002 0.000001 0.068005 68.780920 6.948130 2.024247 25.456947 -7.355615 0.000002 -1.215904 175.726957 -0.461392 -0.000005 -0.000005 -1.115330 -6.651543 1.605883 0.265778 -0.000002 -0.000002 -0.093624 69.129014 -6.923034 -2.019950 25.456950 7.355613 -0.000002 
48.378403 -18.881813 96.897408 -0.293126 -0.028509 1.759184 -2.541790 -0.036029 0.090730 -1.080711 -0.075921 0.180748 0.564357 -0.073731 0.181638 21.562171 0.912378 0.943751 12.375981 -0.638128 1.134946 -13.452458 -38.625072 -15.061310 31.133450 -50.639593 69.386355 -0.000000 -0.000002 0.000000 5.059556 6.442605 -0.982445 -0.000006 0.000005 -2.999988 -5.000220 -7.998735 0.000158 -12.522003 40.186818 13.897344 33.839998 50.081870 -68.286681 -0.000000 0.000003 0.000001 4.312418 -5.640244 1.224894 -0.000006 -0.000018 2.999979 -5.000191 7.998744 -0.000136 -2.439462 -176.707977 2.600579 -179.999991 0.000005 -1.094000 173.690563 -1.989888 -0.542967 -0.000002 0.000001 0.068046 68.782935 6.948144 2.024224 25.456950 -7.355615 0.000001 -1.214135 175.729962 -0.456982 -0.000005 -0.000005 -1.115390 -6.651691 1.601880 0.265826 -0.000003 -0.000002 -0.093568 69.131978 -6.923045 -2.019968 25.456952 7.355613 -0.000002 
48.364609 -18.888819 96.896301 -0.294770 -0.029517 1.760468 -2.541012 -0.035856 0.090652 -1.079151 -0.075530 0.179674 0.565925 -0.073351 0.180558 21.550611 0.918488 0.945091 12.392806 -0.648044 1.138634 -13.455480 -38.621930 -15.065174 31.147763 -50.644838 69.397994 0.000001 -0.000001 0.000002 5.057734 6.443558 -0.982074 -0.000006 0.000004 -2.999993 -5.000221 -7.998735 0.000151 -12.524450 40.184059 13.900376 33.866585 50.073507 -68.323612 -0.000000 0.000004 0.000002 4.285829 -5.656564 1.225101 -0.000006 -0.000017 2.999976 -5.000192 7.998744 -0.000142 -2.438607 -176.705996 2.604633 -179.999991 0.000005 -1.094000 173.687298 -1.993840 -0.543519 -0.000001 0.000001 0.068086 68.784820 6.948117 2.024300 25.456952 -7.355613 0.000002 -1.212437 175.732954 -0.452681 -0.000005 -0.000005 -1.115440 -6.651968 1.597856 0.265899 -0.000002 -0.000002 -0.093512 69.135045 -6.923063 -2.019879 25.456950 7.355613 -0.000001 
48.361008 -18.914921 96.903290 -0.296355 -0.030309 1.761684 -2.540263 -0.035721 0.090569 -1.077641 -0.075189 0.178631 0.567425 -0.073023 0.179511 21.539444 0.924257 0.946391 12.409233 -0.657610 1.142206 -13.458667 -38.618972 -15.069163 31.161874 -50.650040 69.409468 0.000000 -0.000001 0.000001 5.055921 6.444492 -0.981735 -0.000007 0.000005 -2.999986 -5.000222 -7.998735 0.000151 -12.527054 40.181385 13.903630 33.892819 50.065577 -68.359682 0.000000 0.000003 0.000001 4.260229 -5.672348 1.225280 -0.000006 -0.000017 2.999985 -5.000191 7.998744 -0.000144 -2.437722 -176.702977 2.608397 -179.999991 0.000005 -1.094000 173.684252 -1.996816 -0.542958 -0.000002 0.000001 0.068126 68.786617 6.948117 2.024286 25.456953 -7.355614 0.000002 -1.210841 175.734948 -0.448558 -0.000005 -0.000005 -1.115500 -6.652356 1.593881 0.265995 -0.000003 -0.000002 -0.093457 69.138009 -6.923072 -2.019895 25.456952 7.355613 -0.000001 
48.366707 -18.913719 96.902199 -0.297850 -0.030852 1.762830 -2.539569 -0.035626 0.090477 -1.076261 -0.074904 0.177637 0.568808 -0.072751 0.178515 21.529074 0.929427 0.947625 12.425058 -0.666506 1.145565 -13.461675 -38.616435 -15.073061 31.175589 -50.654944 69.420602 0.000001 -0.000001 -0.000002 5.054170 6.445337 -0.981438 -0.000006 0.000005 -2.999988 -5.000221 -7.998735 0.000149 -12.529711 40.178704 13.906958 33.917992 50.058293 -68.393942 -0.000000 0.000003 -0.000001 4.236291 -5.687125 1.225437 -0.000007 -0.000017 2.999980 -5.000191 7.998743 -0.000145 -2.436832 -176.700983 2.611902 -179.999991 0.000005 -1.094000 173.681438 -2.000783 -0.543496 -0.000001 0.000001 0.068166 68.788310 6.948109 2.024279 25.456948 -7.355613 0.000002 -1.209359 175.736942 -0.444725 -0.000005 -0.000005 -1.115550 -6.652843 1.590006 0.266107 -0.000002 -0.000002 -0.093400 69.140857 -6.923077 -2.019917 25.456947 7.355613 -0.000001 
48.373505 -18.903519 96.897797 -0.299213 -0.031113 1.763917 -2.538960 -0.035573 0.090375 -1.075051 -0.074680 0.176712 0.570019 -0.072540 0.177589 21.519904 0.933736 0.948768 12.439876 -0.674413 1.148606 -13.464652 -38.614399 -15.076929 31.188351 -50.659499 69.430792 0.000000 0.000000 0.000002 5.052526 6.446040 -0.981186 -0.000005 0.000004 -2.999993 -5.000220 -7.998735 0.000154 -12.532306 40.176126 13.910241 33.941221 50.051869 -68.425170 -0.000000 0.000003 0.000002 4.214701 -5.700417 1.225564 -0.000007 -0.000017 2.999978 -5.000192 7.998745 -0.000140 -2.435959 -176.698988 2.615048 -179.999991 0.000005 -1.094000 173.678965 -2.004752 -0.543026 -0.000002 0.000001 0.068206 68.789772 6.948094 2.024384 25.456948 -7.355614 0.000001 -1.208024 175.738951 -0.441272 -0.000005 -0.000005 -1.115610 -6.653411 1.586320 0.266236 -0.000002 -0.000002 -0.093345 69.143412 -6.923135 -2.019869 25.456952 7.355613 -0.000002 
48.363800 -18.906620 96.899597 -0.300403 -0.031057 1.764937 -2.538470 -0.035567 0.090261 -1.074071 -0.074523 0.175877 0.571004 -0.072397 0.176752 21.512220 0.936939 0.949791 12.453298 -0.681012 1.151230 -13.467505 -38.613074 -15.080694 31.200113 -50.663625 69.440081 0.000001 0.000001 0.000001 5.051011 6.446555 -0.980982 -0.000006 0.000004 -2.999994 -5.000220 -7.998735 0.000155 -12.534804 40.173858 13.913401 33.961948 50.046681 -68.452436 0.000000 0.000004 0.000003 4.196161 -5.711723 1.225671 -0.000007 -0.000017 2.999980 -5.000192 7.998743 -0.000143 -2.435099 -176.697977 2.617825 -179.999991 0.000005 -1.094000 173.676807 -2.007717 -0.543431 -0.000001 0.000001 0.068246 68.791036 6.948062 2.024399 25.456950 -7.355615 0.000001 -1.206869 175.739948 -0.438269 -0.000005 -0.000004 -1.115660 -6.654051 1.582871 0.266376 -0.000002 -0.000003 -0.093288 69.145734 -6.923113 -2.020021 25.456948 7.355614 -0.000002 
48.365902 -18.893620 96.897102 -0.301378 -0.030651 1.765908 -2.538111 -0.035609 0.090132 -1.073361 -0.074437 0.175148 0.571711 -0.072326 0.176026 21.506430 0.938763 0.950672 12.464912 -0.685986 1.153325 -13.470266 -38.612647 -15.084393 31.210235 -50.667187 69.447786 0.000000 0.000000 0.000001 5.049695 6.446807 -0.980846 -0.000005 0.000004 -2.999990 -5.000219 -7.998735 0.000152 -12.537053 40.171826 13.916282 33.979471 50.042757 -68.474709 -0.000000 0.000003 -0.000001 4.181332 -5.720569 1.225742 -0.000006 -0.000017 2.999981 -5.000192 7.998743 -0.000139 -2.434280 -176.696980 2.620150 -179.999991 0.000005 -1.094000 173.675086 -2.010697 -0.542825 -0.000002 0.000001 0.068285 68.792088 6.948052 2.024431 25.456950 -7.355615 0.000002 -1.205906 175.740945 -0.435830 -0.000005 -0.000005 -1.115710 -6.654740 1.579740 0.266525 -0.000002 -0.000002 -0.093232 69.147647 -6.923138 -2.020004 25.456952 7.355613 -0.000002 
48.375408 -18.901117 96.898102 -0.302114 -0.029861 1.766833 -2.537931 -0.035703 0.089986 -1.072981 -0.074428 0.174547 0.572087 -0.072332 0.175427 21.503034 0.938962 0.951377 12.474423 -0.689015 1.154794 -13.472826 -38.613153 -15.087874 31.218524 -50.670151 69.453707 -0.000000 -0.000000 0.000001 5.048598 6.446749 -0.980788 -0.000006 0.000005 -2.999991 -5.000220 -7.998735 0.000156 -12.538997 40.170211 13.918796 33.992912 50.040514 -68.490869 0.000000 0.000003 -0.000001 4.170922 -5.726477 1.225797 -0.000007 -0.000017 2.999982 -5.000191 7.998745 -0.000139 -2.433518 -176.696980 2.622004 -179.999991 0.000005 -1.094000 173.673843 -2.012675 -0.543088 -0.000001 0.000001 0.068325 68.792825 6.948062 2.024386 25.456948 -7.355615 0.000001 -1.205161 175.740945 -0.434021 -0.000005 -0.000005 -1.115760 -6.655463 1.576986 0.266678 -0.000003 -0.000002 -0.093176 69.149026 -6.923173 -2.019925 25.456952 7.355613 -0.000002 
48.359306 -18.905617 96.897995 -0.302635 -0.028573 1.767629 -2.537872 -0.035880 0.089829 -1.072871 -0.074507 0.174078 0.572199 -0.072427 0.174962 21.501325 0.937531 0.951964 12.482525 -0.690099 1.155687 -13.475438 -38.614632 -15.091532 31.225463 -50.672463 69.458352 -0.000000 -0.000001 -0.000001 5.048000 6.446406 -0.980817 -0.000006 0.000004 -2.999991 -5.000221 -7.998735 0.000157 -12.541046 40.168793 13.921477 34.003489 50.039725 -68.502119 -0.000000 0.000003 0.000002 4.164583 -5.729795 1.225834 -0.000007 -0.000017 2.999977 -5.000191 7.998745 -0.000143 -2.432738 -176.697977 2.623321 -179.999991 0.000005 -1.094000 173.673119 -2.015659 -0.543444 -0.000002 0.000001 0.068364 68.793249 6.948049 2.024458 25.456948 -7.355614 0.000002 -1.204604 175.739948 -0.432853 -0.000005 -0.000005 -1.115810 -6.656255 1.574540 0.266867 -0.000003 -0.000002 -0.093120 69.149983 -6.923187 -2.019966 25.456955 7.355613 -0.000002 
